HIERARCHY
ROOT root
{
	OFFSET 0.000000 0.000000 0.000000
	CHANNELS 6 Xposition Yposition Zposition Zrotation Yrotation Xrotation
	JOINT lhip
	{
		OFFSET 0.058581 -0.082280 -0.017664
		CHANNELS 3 Zrotation Yrotation Xrotation
		JOINT lknee
		{
			OFFSET 0.043451 -0.386469 0.008037
			CHANNELS 3 Zrotation Yrotation Xrotation
			JOINT lankle
			{
				OFFSET -0.014790 -0.426874 -0.037428
				CHANNELS 3 Zrotation Yrotation Xrotation
				JOINT ltoe
				{
					OFFSET 0.041054 -0.060286 0.122042
					CHANNELS 3 Zrotation Yrotation Xrotation
					End Site
					{
						OFFSET 0.000000 0.000000 0.000000
					}
				}
			}
		}
	}
	JOINT rhip
	{
		OFFSET -0.060310 -0.090513 -0.013543
		CHANNELS 3 Zrotation Yrotation Xrotation
		JOINT rknee
		{
			OFFSET -0.043257 -0.383688 -0.004843
			CHANNELS 3 Zrotation Yrotation Xrotation
			JOINT rankle
			{
				OFFSET 0.019056 -0.420046 -0.034562
				CHANNELS 3 Zrotation Yrotation Xrotation
				JOINT rtoe
				{
					OFFSET -0.034840 -0.062106 0.130323
					CHANNELS 3 Zrotation Yrotation Xrotation
					End Site
					{
						OFFSET 0.000000 0.000000 0.000000
					}
				}
			}
		}
	}
	JOINT lowerback
	{
		OFFSET 0.004439 0.124404 -0.038385
		CHANNELS 3 Zrotation Yrotation Xrotation
		JOINT upperback
		{
			OFFSET 0.004488 0.137956 0.026820
			CHANNELS 3 Zrotation Yrotation Xrotation
			JOINT chest
			{
				OFFSET -0.002265 0.056032 0.002855
				CHANNELS 3 Zrotation Yrotation Xrotation
				JOINT lowerneck
				{
					OFFSET -0.013390 0.211636 -0.033468
					CHANNELS 3 Zrotation Yrotation Xrotation
					JOINT upperneck
					{
						OFFSET 0.010113 0.088937 0.050410
						CHANNELS 3 Zrotation Yrotation Xrotation
						End Site
						{
							OFFSET 0.000000 0.000000 0.000000
						}
					}
				}
				JOINT lclavicle
				{
					OFFSET 0.071702 0.114000 -0.018898
					CHANNELS 3 Zrotation Yrotation Xrotation
					JOINT lshoulder
					{
						OFFSET 0.122921 0.045205 -0.019046
						CHANNELS 3 Zrotation Yrotation Xrotation
						JOINT lelbow
						{
							OFFSET 0.255332 -0.015649 -0.022946
							CHANNELS 3 Zrotation Yrotation Xrotation
							JOINT lwrist
							{
								OFFSET 0.265709 0.012698 -0.007375
								CHANNELS 3 Zrotation Yrotation Xrotation
								End Site
								{
									OFFSET 0.000000 0.000000 0.000000
								}
							}
						}
					}
				}
				JOINT rclavicle
				{
					OFFSET -0.082954 0.112472 -0.023707
					CHANNELS 3 Zrotation Yrotation Xrotation
					JOINT rshoulder
					{
						OFFSET -0.113228 0.046853 -0.008472
						CHANNELS 3 Zrotation Yrotation Xrotation
						JOINT relbow
						{
							OFFSET -0.260127 -0.014369 -0.031269
							CHANNELS 3 Zrotation Yrotation Xrotation
							JOINT rwrist
							{
								OFFSET -0.269108 0.006794 -0.006027
								CHANNELS 3 Zrotation Yrotation Xrotation
								End Site
								{
									OFFSET 0.000000 0.000000 0.000000
								}
							}
						}
					}
				}
			}
		}
	}
}
MOTION
Frames: 17
Frame Time: 0.033333
-0.189934 0.275099 0.915596 98.838918 -2.734297 100.482924 5.462066 -3.565672 -48.009154 -8.875721 -1.804077 32.538571 -3.074911 -2.625893 -3.994498 0.000000 -0.000000 0.000000 -7.775971 -11.980425 -44.119934 -0.783015 -13.829834 46.813282 2.152039 -2.296530 -18.737600 0.000000 -0.000000 0.000000 11.269024 -2.721213 64.301194 -3.582356 6.341600 6.461269 3.939646 4.916216 4.418831 -13.677272 -9.004756 4.371296 2.867989 -1.118190 -4.255434 -9.479342 -20.521482 -10.161169 -60.037666 -9.719931 30.297158 -50.493721 -82.817650 84.312927 30.675360 -2.620297 -13.015477 -7.306333 37.495939 -7.330107 6.993697 26.075619 -22.978811 -1.089778 11.987056 -29.700900 -21.337236 8.686366 -11.442661 
-0.185022 0.285395 0.908501 98.720072 -3.583288 101.816574 4.587227 -3.836707 -50.394187 -9.698956 -1.173335 34.450938 -1.700438 -1.994633 -4.017702 0.000000 -0.000000 0.000000 -8.842686 -13.199136 -46.296149 -0.137578 -12.638164 48.770058 2.260181 -2.625946 -19.387859 0.000000 -0.000000 0.000000 12.084434 -3.484330 66.317622 -3.966274 6.798084 6.250224 3.936035 4.436075 5.891399 -14.273821 -10.979738 1.710508 2.895751 -1.768623 -4.460684 -8.681292 -19.397388 -11.689627 -59.714022 -9.326155 30.330844 -81.176053 -82.933479 116.427801 33.326925 -3.227319 -13.387994 -10.030250 37.745794 -8.067750 2.907782 24.086571 -26.230061 -0.801944 11.351369 -32.058570 -23.471523 9.191213 -11.916447 
-0.178867 0.294550 0.901183 98.680426 -4.429016 103.081022 4.121003 -4.221818 -52.639222 -10.618455 -0.189641 36.317209 -0.814517 -1.687662 -4.481987 0.000000 -0.000000 0.000000 -9.928384 -14.445065 -48.152682 0.270002 -11.928743 50.666518 2.563638 -2.488955 -20.174657 0.000000 -0.000000 0.000000 12.969656 -4.137215 67.871474 -4.208079 7.105141 6.537269 3.906972 3.987942 6.822985 -14.954323 -12.889609 0.064759 3.495928 -2.308319 -5.279841 -8.086723 -18.290430 -13.119968 -59.617912 -8.759004 30.349448 -104.415539 -81.580814 140.717852 34.859133 -3.185968 -14.509532 -12.651759 37.898585 -8.554016 0.086423 21.733896 -28.517910 -1.273078 11.215300 -33.768278 -25.059580 9.443792 -12.248279 
-0.172904 0.303384 0.895094 98.492895 -5.009500 104.053684 3.834574 -4.411768 -54.462292 -11.642432 0.705381 38.108537 -0.099638 -1.123468 -5.316193 0.000000 -0.000000 0.000000 -10.934289 -15.379448 -49.542750 0.955342 -11.381060 52.215672 2.849022 -2.486378 -20.956202 0.000000 -0.000000 0.000000 13.973630 -4.663594 69.407583 -4.365245 7.587814 6.666283 3.955463 3.205583 8.098143 -14.935839 -14.269386 -2.263638 3.331396 -3.044483 -5.288202 -7.818795 -16.987973 -14.553145 -59.929933 -8.606681 30.725307 -116.864160 -79.802274 154.402089 36.778116 -3.363697 -15.074362 -14.673581 37.681050 -8.501518 -3.352731 19.763483 -30.543846 -1.202603 10.599320 -35.135334 -26.934457 9.864501 -12.938890 
-0.166098 0.312591 0.888735 98.927355 -5.872110 104.640473 2.963664 -5.166482 -55.889650 -12.469796 1.159816 39.772450 0.704367 -0.603107 -5.830536 0.000000 -0.000000 0.000000 -12.014459 -17.499387 -50.543511 1.638601 -10.773296 53.961670 3.209198 -2.204573 -21.733288 0.000000 -0.000000 0.000000 14.822654 -5.988538 70.947272 -4.537321 7.517164 6.099424 3.818497 2.416542 9.584771 -15.084082 -15.388212 -4.571034 3.172020 -3.223169 -4.831782 -7.358416 -15.198179 -16.199976 -60.751092 -8.209710 30.859765 -122.474359 -77.566649 161.985509 39.590118 -3.143545 -15.413957 -16.673651 37.252381 -8.936332 -5.834682 18.591409 -32.610119 -0.940321 9.868251 -36.073536 -28.356921 10.217835 -12.729334 
-0.159838 0.318379 0.880093 98.028254 -6.149747 105.857833 3.443480 -4.790057 -58.097525 -13.611481 2.695011 41.855706 1.535341 0.077074 -6.976510 0.000000 -0.000000 0.000000 -12.839746 -17.604767 -52.474143 2.138513 -10.836600 55.789199 3.134473 -2.289560 -22.455465 0.000000 -0.000000 0.000000 14.752831 -5.726937 71.668880 -4.974197 7.662658 5.719305 3.788222 1.959630 10.482705 -15.270249 -15.898840 -5.290064 3.352588 -3.330250 -5.112697 -6.888270 -13.726043 -17.055915 -61.022238 -7.219229 30.428358 -127.212647 -75.329313 168.219626 40.895908 -2.475701 -15.303308 -18.393778 37.254643 -9.367364 -6.546506 18.324095 -34.465649 -1.548832 9.056166 -36.851068 -28.655891 9.861012 -13.008904 
-0.154335 0.325353 0.873589 98.189341 -6.531502 106.956594 3.604674 -5.303757 -60.237861 -14.186071 3.960021 43.750867 2.159410 0.220164 -7.835248 0.000000 -0.000000 0.000000 -13.665575 -18.640486 -53.800638 2.491594 -11.190790 57.238279 3.318379 -2.219753 -23.192183 0.000000 -0.000000 0.000000 15.165548 -5.739407 71.927569 -4.713986 7.818291 5.005111 3.813987 1.859394 10.962538 -14.931967 -16.419284 -4.763657 3.110584 -3.567665 -5.532173 -6.646462 -13.475934 -16.918478 -61.819297 -6.938042 30.659513 -127.223602 -74.721821 169.881152 43.666595 -2.874541 -13.575030 -18.502699 36.807738 -9.268004 -7.203611 17.677561 -35.168317 -1.662090 8.720059 -37.389897 -29.915590 9.656722 -13.499332 
-0.149857 0.330975 0.866701 98.679194 -6.283178 108.229035 4.562910 -5.723210 -62.702484 -14.902374 5.042038 45.602332 2.591554 0.605743 -8.472008 0.000000 -0.000000 0.000000 -13.936876 -19.276662 -55.273466 2.726870 -11.933620 58.599357 3.337058 -2.406484 -23.818152 0.000000 -0.000000 0.000000 15.442610 -5.931439 71.508461 -4.337289 8.243153 4.319310 3.761466 1.933525 11.396907 -15.032850 -16.762615 -3.918902 3.111957 -3.790755 -5.886768 -6.572134 -12.900763 -16.808931 -62.216706 -6.482567 30.656972 -125.428144 -73.986479 170.127874 46.179321 -3.137848 -11.633978 -18.329122 36.604667 -8.731605 -7.659058 17.428715 -36.114671 -1.884270 8.441665 -36.587921 -30.369479 9.336348 -13.974320 
-0.144636 0.336100 0.862076 99.005539 -6.343172 108.911925 4.728830 -6.164611 -63.991123 -15.051784 5.765319 46.843488 2.977882 0.719900 -9.088890 0.000000 -0.000000 0.000000 -14.434227 -19.919008 -55.957558 2.488581 -12.564471 59.719046 3.302854 -2.137380 -24.549709 0.000000 -0.000000 0.000000 15.807835 -5.959607 71.430220 -3.932275 8.440722 4.157779 3.803884 1.917403 11.545388 -14.734902 -17.021236 -3.459754 2.862467 -4.275610 -6.048569 -6.652538 -12.996037 -16.459813 -62.206088 -6.469811 30.911572 -127.405832 -73.828739 171.927800 46.997858 -3.511670 -11.289777 -17.938917 36.427251 -8.362544 -8.276225 16.761277 -36.148022 -1.669881 8.390452 -36.791868 -31.507594 9.412069 -13.547635 
-0.140226 0.340690 0.858547 99.281014 -6.456030 109.794659 4.992070 -6.495760 -65.270239 -15.526841 6.313112 47.592440 3.332934 1.029669 -9.533180 0.000000 -0.000000 0.000000 -14.812812 -20.434814 -56.798091 2.435387 -12.919377 60.495182 3.506392 -2.114061 -25.008425 0.000000 -0.000000 0.000000 15.972431 -6.121475 71.352210 -3.796547 8.553569 3.533669 3.760706 1.900571 11.931505 -14.617767 -17.321897 -3.567005 2.658891 -4.604234 -6.092121 -6.440761 -12.668644 -16.539969 -62.189798 -6.442970 31.029155 -127.446051 -73.264700 172.317035 47.641667 -3.201214 -11.447726 -17.939011 36.091968 -8.271666 -8.020771 16.759266 -35.932983 -2.301634 8.407014 -36.959081 -32.181163 9.131770 -14.029157 
-0.136960 0.345175 0.855840 99.676734 -6.606953 110.821047 5.594896 -7.124896 -66.542645 -15.971927 7.008301 47.750570 3.615067 1.382812 -9.734519 0.000000 -0.000000 0.000000 -15.341988 -20.852614 -57.510811 2.482547 -13.461709 60.817557 3.640706 -2.362389 -25.299143 0.000000 -0.000000 0.000000 16.124370 -6.324535 70.699927 -3.585101 8.790012 3.302816 3.716441 1.927001 12.188808 -14.578775 -17.524499 -3.367972 2.906186 -4.884646 -6.391989 -6.546202 -12.561387 -16.105726 -61.569657 -6.575696 31.357518 -131.909780 -72.490591 175.567995 47.641859 -3.032557 -14.590961 -17.413917 35.823093 -7.557148 -8.398544 16.311248 -35.592891 -2.441350 8.661884 -37.443904 -32.958067 9.551085 -13.720150 
-0.133436 0.348821 0.854640 99.822138 -6.602156 111.607758 5.928149 -7.340874 -67.352513 -16.287040 7.306059 47.913654 3.614193 1.642798 -9.925882 0.000000 -0.000000 0.000000 -15.532852 -20.984377 -57.943060 2.497172 -13.667685 60.954168 3.866824 -2.582008 -25.396461 0.000000 -0.000000 0.000000 16.203981 -6.261854 70.495210 -3.392293 8.992962 3.275133 3.752078 1.956039 12.291062 -14.465171 -17.553845 -3.510477 3.325261 -5.091686 -6.728457 -6.280808 -12.299471 -15.998004 -61.445499 -6.710153 31.703651 -134.284845 -71.742741 177.439691 48.057823 -2.496942 -16.996109 -17.309245 35.379208 -7.284861 -8.468991 16.094454 -35.232143 -2.737758 8.863885 -37.179057 -32.399377 9.388683 -14.048874 
-0.128890 0.351934 0.855295 100.018107 -6.496436 111.958343 5.657887 -7.319935 -67.433571 -16.125343 7.208819 48.107506 3.623592 1.388754 -10.249817 0.000000 -0.000000 0.000000 -15.376442 -21.162813 -57.891359 2.232900 -13.659814 60.907817 3.955705 -2.445707 -25.574776 0.000000 -0.000000 0.000000 16.493724 -6.311864 71.136771 -3.258399 9.034694 2.702951 3.908886 1.939556 12.246346 -14.495825 -17.875969 -3.399077 3.186590 -5.010669 -6.938387 -6.248415 -12.515226 -16.315388 -61.979447 -6.565097 31.648821 -129.048036 -72.249985 174.059788 49.046017 -2.650881 -12.992413 -17.370011 35.351201 -7.465414 -8.305928 15.470718 -35.240813 -2.746210 9.381499 -36.280960 -33.409840 9.509184 -14.269749 
-0.126124 0.355276 0.855773 100.101100 -6.753156 112.691320 5.659684 -7.802891 -67.913938 -16.241668 7.247004 47.743417 3.793140 1.722497 -10.152681 0.000000 -0.000000 0.000000 -15.717935 -21.379565 -58.157096 2.223174 -13.758776 60.556872 4.128969 -2.572377 -25.481218 0.000000 -0.000000 0.000000 16.574082 -6.284345 70.813128 -3.095124 8.908959 2.595692 3.933170 1.871416 12.389537 -14.319938 -17.824891 -3.334132 3.329764 -5.135791 -7.309538 -6.291638 -12.474584 -16.103053 -61.878814 -6.785469 31.739987 -129.262945 -72.034725 173.914980 49.110228 -2.641349 -13.255862 -17.164788 35.038525 -7.191108 -8.405021 15.429464 -35.164340 -3.202842 9.720085 -36.075024 -34.620921 9.644844 -13.712433 
-0.123767 0.357696 0.856490 100.313368 -6.632741 113.416999 6.021675 -8.100123 -68.484870 -16.222312 7.361461 47.582658 3.823007 1.791601 -10.144686 0.000000 -0.000000 0.000000 -15.770680 -21.261257 -58.375099 2.224277 -14.052183 60.189936 4.279703 -2.893147 -25.476527 0.000000 -0.000000 0.000000 16.591094 -6.320970 70.457792 -2.889945 9.023145 2.465995 4.026289 1.823735 12.475259 -14.213403 -17.794171 -3.393341 3.256348 -5.199046 -7.374225 -6.481094 -12.303907 -15.921564 -61.872428 -6.838152 31.834272 -129.420657 -71.954539 174.107246 49.593882 -2.649604 -13.668701 -16.782389 34.938936 -6.729136 -8.919250 15.421029 -35.088359 -3.424263 10.015174 -35.877797 -35.575403 9.869857 -13.775517 
-0.121662 0.360056 0.857425 100.440594 -6.651806 114.012149 6.246675 -8.439080 -68.835363 -16.232635 7.428480 47.259519 3.960570 1.855782 -10.100542 0.000000 -0.000000 0.000000 -15.881700 -21.337140 -58.549731 2.202813 -14.244258 59.915281 4.457295 -2.983361 -25.422944 0.000000 -0.000000 0.000000 16.606357 -6.262414 70.146548 -2.715035 9.070496 2.472486 4.133995 1.758441 12.537103 -13.983016 -17.906537 -3.430636 3.342727 -5.152653 -7.859317 -6.631127 -12.201461 -15.623143 -61.752836 -7.042743 31.852092 -131.640898 -71.812107 175.357028 48.579027 -2.568370 -15.738798 -16.460762 34.596916 -6.513655 -9.135658 15.356358 -34.846683 -3.766542 10.792471 -35.916054 -35.012107 10.111794 -13.059734 
-0.119213 0.361902 0.859278 100.407226 -6.552652 114.242706 6.070003 -8.380167 -68.637775 -16.188954 7.156926 46.927287 3.928335 1.885587 -10.010322 0.000000 -0.000000 0.000000 -15.770784 -21.295916 -58.358158 2.172840 -14.197509 59.420684 4.591385 -2.997386 -25.317296 0.000000 -0.000000 0.000000 16.681951 -6.169049 70.373238 -2.619542 9.090350 2.540663 4.250184 1.763433 12.414415 -13.973683 -18.009224 -3.461578 3.542838 -5.175152 -8.024081 -6.732749 -12.367210 -15.689740 -61.578314 -7.116197 31.936872 -131.059903 -71.717238 174.727667 48.991468 -2.570127 -15.480113 -16.419173 34.488746 -6.602516 -9.197915 14.954444 -34.449310 -4.070649 11.542587 -35.184373 -35.403799 10.553778 -12.292495 
